# xmcd
#
# Track frame offsets:
#	150
#	46378
#	76951
#	99692
#	146336
#	183435
#	237000
#	259883
#	279443
#
# Disc length: 4027 seconds
#
# Revision: 1
# Processed by: cddbd v1.5.2PL0 Copyright (c) Steve Scherf et al.
# Submitted via: audiograbber 1.83.01
#
DISCID=750fb909
DTITLE=Dire Straits - Live in San Antonio 85
DYEAR=1985
DGENRE=Rock
TTITLE0=Ride Across the River
TTITLE1=Expresso Love
TTITLE2=One World
TTITLE3=Romeo and Juliet
TTITLE4=Private Investigation
TTITLE5=Sultans of Swing
TTITLE6=Why Worry
TTITLE7=Walk of Life
TTITLE8=Two Young Lovers
EXTD=
EXTT0=
EXTT1=
EXTT2=
EXTT3=
EXTT4=
EXTT5=
EXTT6=
EXTT7=
EXTT8=
PLAYORDER=
